<?xml version="1.0" encoding="UTF-8" standalone="no"?>
<!DOCTYPE svg PUBLIC "-//W3C//DTD SVG 1.1//EN"
 "http://www.w3.org/Graphics/SVG/1.1/DTD/svg11.dtd">
<!-- Generated by graphviz version 2.40.1 (20161225.0304)
 -->
<!-- Title: dependencies Pages: 1 -->
<svg width="782pt" height="211pt"
 viewBox="0.00 0.00 782.00 211.00" xmlns="http://www.w3.org/2000/svg" xmlns:xlink="http://www.w3.org/1999/xlink">
<g id="graph0" class="graph" transform="scale(1 1) rotate(0) translate(4 207)">
<title>dependencies</title>
<polygon fill="#ffffff" stroke="transparent" points="-4,4 -4,-207 778,-207 778,4 -4,4"/>
<text text-anchor="start" x="366.0091" y="-42.4" font-family="sans-serif" font-weight="bold" font-size="14.00" fill="#000000">Legend</text>
<polygon fill="#ffffb3" stroke="transparent" points="153,-10 153,-30 173,-30 173,-10 153,-10"/>
<text text-anchor="start" x="176.629" y="-15.4" font-family="sans-serif" font-size="14.00" fill="#000000"> &#160;Declarations</text>
<polygon fill="#8dd3c7" stroke="transparent" points="266,-10 266,-30 286,-30 286,-10 266,-10"/>
<text text-anchor="start" x="289.7251" y="-15.4" font-family="sans-serif" font-size="14.00" fill="#000000"> &#160;Module</text>
<polygon fill="#80b1d3" stroke="transparent" points="352,-10 352,-30 372,-30 372,-10 352,-10"/>
<text text-anchor="start" x="375.7812" y="-15.4" font-family="sans-serif" font-size="14.00" fill="#000000"> &#160;Bootstrap</text>
<polygon fill="#fdb462" stroke="transparent" points="449,-10 449,-30 469,-30 469,-10 449,-10"/>
<text text-anchor="start" x="472.6732" y="-15.4" font-family="sans-serif" font-size="14.00" fill="#000000"> &#160;Providers</text>
<polygon fill="#fb8072" stroke="transparent" points="545,-10 545,-30 565,-30 565,-10 545,-10"/>
<text text-anchor="start" x="568.7258" y="-15.4" font-family="sans-serif" font-size="14.00" fill="#000000"> &#160;Exports</text>
<g id="clust1" class="cluster">
<title>cluster_RepoModule</title>
<polygon fill="none" stroke="#000000" stroke-dasharray="1,5" points="8,-70 8,-195 766,-195 766,-70 8,-70"/>
</g>
<g id="clust2" class="cluster">
<title>cluster_RepoModule_declarations</title>
<polygon fill="none" stroke="#000000" points="290,-78 290,-130 758,-130 758,-78 290,-78"/>
</g>
<g id="clust6" class="cluster">
<title>cluster_RepoModule_imports</title>
<polygon fill="none" stroke="#000000" points="16,-78 16,-130 282,-130 282,-78 16,-78"/>
</g>
<!-- RepoComponent -->
<g id="node1" class="node">
<title>RepoComponent</title>
<polygon fill="#ffffb3" stroke="#000000" points="750.3837,-122 639.6163,-122 639.6163,-86 750.3837,-86 750.3837,-122"/>
<text text-anchor="middle" x="695" y="-99.8" font-family="Times,serif" font-size="14.00" fill="#000000">RepoComponent</text>
</g>
<!-- RepoModule -->
<g id="node4" class="node">
<title>RepoModule</title>
<polygon fill="#8dd3c7" stroke="#000000" points="420.6011,-187 417.6011,-191 396.6011,-191 393.6011,-187 331.3989,-187 331.3989,-151 420.6011,-151 420.6011,-187"/>
<text text-anchor="middle" x="376" y="-164.8" font-family="Times,serif" font-size="14.00" fill="#000000">RepoModule</text>
</g>
<!-- RepoComponent&#45;&gt;RepoModule -->
<g id="edge1" class="edge">
<title>RepoComponent&#45;&gt;RepoModule</title>
<path fill="none" stroke="#000000" d="M695,-122.2843C695,-143.3211 695,-175 695,-175 695,-175 430.6915,-175 430.6915,-175"/>
<polygon fill="#000000" stroke="#000000" points="430.6915,-171.5001 420.6915,-175 430.6914,-178.5001 430.6915,-171.5001"/>
</g>
<!-- RepoEventsComponent -->
<g id="node2" class="node">
<title>RepoEventsComponent</title>
<polygon fill="#ffffb3" stroke="#000000" points="621.486,-122 472.514,-122 472.514,-86 621.486,-86 621.486,-122"/>
<text text-anchor="middle" x="547" y="-99.8" font-family="Times,serif" font-size="14.00" fill="#000000">RepoEventsComponent</text>
</g>
<!-- RepoEventsComponent&#45;&gt;RepoModule -->
<g id="edge2" class="edge">
<title>RepoEventsComponent&#45;&gt;RepoModule</title>
<path fill="none" stroke="#000000" d="M547,-122.0225C547,-139.3734 547,-163 547,-163 547,-163 430.9282,-163 430.9282,-163"/>
<polygon fill="#000000" stroke="#000000" points="430.9283,-159.5001 420.9282,-163 430.9282,-166.5001 430.9283,-159.5001"/>
</g>
<!-- RepoReadmeComponent -->
<g id="node3" class="node">
<title>RepoReadmeComponent</title>
<polygon fill="#ffffb3" stroke="#000000" points="454.2548,-122 297.7452,-122 297.7452,-86 454.2548,-86 454.2548,-122"/>
<text text-anchor="middle" x="376" y="-99.8" font-family="Times,serif" font-size="14.00" fill="#000000">RepoReadmeComponent</text>
</g>
<!-- RepoReadmeComponent&#45;&gt;RepoModule -->
<g id="edge3" class="edge">
<title>RepoReadmeComponent&#45;&gt;RepoModule</title>
<path fill="none" stroke="#000000" d="M376,-122.1061C376,-122.1061 376,-140.991 376,-140.991"/>
<polygon fill="#000000" stroke="#000000" points="372.5001,-140.9909 376,-150.991 379.5001,-140.991 372.5001,-140.9909"/>
</g>
<!-- RepoRoutingModule -->
<g id="node5" class="node">
<title>RepoRoutingModule</title>
<polygon fill="#8dd3c7" stroke="#000000" points="274.219,-122 271.219,-126 250.219,-126 247.219,-122 139.781,-122 139.781,-86 274.219,-86 274.219,-122"/>
<text text-anchor="middle" x="207" y="-99.8" font-family="Times,serif" font-size="14.00" fill="#000000">RepoRoutingModule</text>
</g>
<!-- RepoRoutingModule&#45;&gt;RepoModule -->
<g id="edge4" class="edge">
<title>RepoRoutingModule&#45;&gt;RepoModule</title>
<path fill="none" stroke="#000000" d="M207,-122.0225C207,-139.3734 207,-163 207,-163 207,-163 321.1548,-163 321.1548,-163"/>
<polygon fill="#000000" stroke="#000000" points="321.1548,-166.5001 331.1548,-163 321.1548,-159.5001 321.1548,-166.5001"/>
</g>
<!-- SharedModule -->
<g id="node6" class="node">
<title>SharedModule</title>
<polygon fill="#8dd3c7" stroke="#000000" points="122.4231,-122 119.4231,-126 98.4231,-126 95.4231,-122 23.5769,-122 23.5769,-86 122.4231,-86 122.4231,-122"/>
<text text-anchor="middle" x="73" y="-99.8" font-family="Times,serif" font-size="14.00" fill="#000000">SharedModule</text>
</g>
<!-- SharedModule&#45;&gt;RepoModule -->
<g id="edge5" class="edge">
<title>SharedModule&#45;&gt;RepoModule</title>
<path fill="none" stroke="#000000" d="M73,-122.2843C73,-143.3211 73,-175 73,-175 73,-175 321.2913,-175 321.2913,-175"/>
<polygon fill="#000000" stroke="#000000" points="321.2913,-178.5001 331.2913,-175 321.2913,-171.5001 321.2913,-178.5001"/>
</g>
</g>
</svg>
