<?xml version="1.0" encoding="UTF-8" standalone="no"?>
<!DOCTYPE svg PUBLIC "-//W3C//DTD SVG 1.1//EN"
 "http://www.w3.org/Graphics/SVG/1.1/DTD/svg11.dtd">
<!-- Generated by graphviz version 2.40.1 (20161225.0304)
 -->
<!-- Title: dependencies Pages: 1 -->
<svg width="504pt" height="284pt"
 viewBox="0.00 0.00 504.00 284.00" xmlns="http://www.w3.org/2000/svg" xmlns:xlink="http://www.w3.org/1999/xlink">
<g id="graph0" class="graph" transform="scale(1 1) rotate(0) translate(4 280)">
<title>dependencies</title>
<polygon fill="#ffffff" stroke="transparent" points="-4,4 -4,-280 500,-280 500,4 -4,4"/>
<text text-anchor="start" x="227.0091" y="-42.4" font-family="sans-serif" font-weight="bold" font-size="14.00" fill="#000000">Legend</text>
<polygon fill="#ffffb3" stroke="transparent" points="14,-10 14,-30 34,-30 34,-10 14,-10"/>
<text text-anchor="start" x="37.629" y="-15.4" font-family="sans-serif" font-size="14.00" fill="#000000"> &#160;Declarations</text>
<polygon fill="#8dd3c7" stroke="transparent" points="127,-10 127,-30 147,-30 147,-10 127,-10"/>
<text text-anchor="start" x="150.7251" y="-15.4" font-family="sans-serif" font-size="14.00" fill="#000000"> &#160;Module</text>
<polygon fill="#80b1d3" stroke="transparent" points="213,-10 213,-30 233,-30 233,-10 213,-10"/>
<text text-anchor="start" x="236.7812" y="-15.4" font-family="sans-serif" font-size="14.00" fill="#000000"> &#160;Bootstrap</text>
<polygon fill="#fdb462" stroke="transparent" points="310,-10 310,-30 330,-30 330,-10 310,-10"/>
<text text-anchor="start" x="333.6732" y="-15.4" font-family="sans-serif" font-size="14.00" fill="#000000"> &#160;Providers</text>
<polygon fill="#fb8072" stroke="transparent" points="406,-10 406,-30 426,-30 426,-10 406,-10"/>
<text text-anchor="start" x="429.7258" y="-15.4" font-family="sans-serif" font-size="14.00" fill="#000000"> &#160;Exports</text>
<g id="clust1" class="cluster">
<title>cluster_SharedModule</title>
<polygon fill="none" stroke="#000000" stroke-dasharray="1,5" points="79,-70 79,-268 417,-268 417,-70 79,-70"/>
</g>
<g id="clust2" class="cluster">
<title>cluster_SharedModule_declarations</title>
<polygon fill="none" stroke="#000000" points="91,-78 91,-130 406,-130 406,-78 91,-78"/>
</g>
<g id="clust6" class="cluster">
<title>cluster_SharedModule_exports</title>
<polygon fill="none" stroke="#000000" points="87,-208 87,-260 409,-260 409,-208 87,-208"/>
</g>
<!-- LargeNumberShortenPipe -->
<g id="node1" class="node">
<title>LargeNumberShortenPipe</title>
<polygon fill="#ffffb3" stroke="#000000" points="398.451,-122 235.549,-122 235.549,-86 398.451,-86 398.451,-122"/>
<text text-anchor="middle" x="317" y="-99.8" font-family="Times,serif" font-size="14.00" fill="#000000">LargeNumberShortenPipe</text>
</g>
<!-- SharedModule -->
<g id="node3" class="node">
<title>SharedModule</title>
<polygon fill="#8dd3c7" stroke="#000000" points="208.4231,-187 205.4231,-191 184.4231,-191 181.4231,-187 109.5769,-187 109.5769,-151 208.4231,-151 208.4231,-187"/>
<text text-anchor="middle" x="159" y="-164.8" font-family="Times,serif" font-size="14.00" fill="#000000">SharedModule</text>
</g>
<!-- LargeNumberShortenPipe&#45;&gt;SharedModule -->
<g id="edge1" class="edge">
<title>LargeNumberShortenPipe&#45;&gt;SharedModule</title>
<path fill="none" stroke="#000000" d="M344.1585,-122.0225C344.1585,-139.3734 344.1585,-163 344.1585,-163 344.1585,-163 218.6191,-163 218.6191,-163"/>
<polygon fill="#000000" stroke="#000000" points="218.6191,-159.5001 208.6191,-163 218.619,-166.5001 218.6191,-159.5001"/>
</g>
<!-- MarkedDownPipe -->
<g id="node2" class="node">
<title>MarkedDownPipe</title>
<polygon fill="#ffffb3" stroke="#000000" points="217.136,-122 98.864,-122 98.864,-86 217.136,-86 217.136,-122"/>
<text text-anchor="middle" x="158" y="-99.8" font-family="Times,serif" font-size="14.00" fill="#000000">MarkedDownPipe</text>
</g>
<!-- MarkedDownPipe&#45;&gt;SharedModule -->
<g id="edge2" class="edge">
<title>MarkedDownPipe&#45;&gt;SharedModule</title>
<path fill="none" stroke="#000000" d="M159,-122.1061C159,-122.1061 159,-140.991 159,-140.991"/>
<polygon fill="#000000" stroke="#000000" points="155.5001,-140.9909 159,-150.991 162.5001,-140.991 155.5001,-140.9909"/>
</g>
<!-- LargeNumberShortenPipe  -->
<g id="node4" class="node">
<title>LargeNumberShortenPipe </title>
<polygon fill="#fb8072" stroke="#000000" points="401.4516,-252 234.5484,-252 234.5484,-216 401.4516,-216 401.4516,-252"/>
<text text-anchor="middle" x="318" y="-229.8" font-family="Times,serif" font-size="14.00" fill="#000000">LargeNumberShortenPipe </text>
</g>
<!-- SharedModule&#45;&gt;LargeNumberShortenPipe  -->
<g id="edge3" class="edge">
<title>SharedModule&#45;&gt;LargeNumberShortenPipe </title>
<path fill="none" stroke="#000000" stroke-dasharray="5,2" d="M208.4656,-175C245.5176,-175 289.8415,-175 289.8415,-175 289.8415,-175 289.8415,-205.9775 289.8415,-205.9775"/>
<polygon fill="#000000" stroke="#000000" points="286.3416,-205.9774 289.8415,-215.9775 293.3416,-205.9775 286.3416,-205.9774"/>
</g>
<!-- MarkedDownPipe  -->
<g id="node5" class="node">
<title>MarkedDownPipe </title>
<polygon fill="#fb8072" stroke="#000000" points="217.1355,-252 94.8645,-252 94.8645,-216 217.1355,-216 217.1355,-252"/>
<text text-anchor="middle" x="156" y="-229.8" font-family="Times,serif" font-size="14.00" fill="#000000">MarkedDownPipe </text>
</g>
<!-- SharedModule&#45;&gt;MarkedDownPipe  -->
<g id="edge4" class="edge">
<title>SharedModule&#45;&gt;MarkedDownPipe </title>
<path fill="none" stroke="#000000" stroke-dasharray="5,2" d="M159,-187.1061C159,-187.1061 159,-205.991 159,-205.991"/>
<polygon fill="#000000" stroke="#000000" points="155.5001,-205.9909 159,-215.991 162.5001,-205.991 155.5001,-205.9909"/>
</g>
</g>
</svg>
