<?xml version="1.0" encoding="UTF-8" standalone="no"?>
<!DOCTYPE svg PUBLIC "-//W3C//DTD SVG 1.1//EN"
 "http://www.w3.org/Graphics/SVG/1.1/DTD/svg11.dtd">
<!-- Generated by graphviz version 2.40.1 (20161225.0304)
 -->
<!-- Title: dependencies Pages: 1 -->
<svg width="925pt" height="284pt"
 viewBox="0.00 0.00 925.00 284.00" xmlns="http://www.w3.org/2000/svg" xmlns:xlink="http://www.w3.org/1999/xlink">
<g id="graph0" class="graph" transform="scale(1 1) rotate(0) translate(4 280)">
<title>dependencies</title>
<polygon fill="#ffffff" stroke="transparent" points="-4,4 -4,-280 921,-280 921,4 -4,4"/>
<text text-anchor="start" x="437.5091" y="-42.4" font-family="sans-serif" font-weight="bold" font-size="14.00" fill="#000000">Legend</text>
<polygon fill="#ffffb3" stroke="transparent" points="224.5,-10 224.5,-30 244.5,-30 244.5,-10 224.5,-10"/>
<text text-anchor="start" x="248.129" y="-15.4" font-family="sans-serif" font-size="14.00" fill="#000000"> &#160;Declarations</text>
<polygon fill="#8dd3c7" stroke="transparent" points="337.5,-10 337.5,-30 357.5,-30 357.5,-10 337.5,-10"/>
<text text-anchor="start" x="361.2251" y="-15.4" font-family="sans-serif" font-size="14.00" fill="#000000"> &#160;Module</text>
<polygon fill="#80b1d3" stroke="transparent" points="423.5,-10 423.5,-30 443.5,-30 443.5,-10 423.5,-10"/>
<text text-anchor="start" x="447.2812" y="-15.4" font-family="sans-serif" font-size="14.00" fill="#000000"> &#160;Bootstrap</text>
<polygon fill="#fdb462" stroke="transparent" points="520.5,-10 520.5,-30 540.5,-30 540.5,-10 520.5,-10"/>
<text text-anchor="start" x="544.1732" y="-15.4" font-family="sans-serif" font-size="14.00" fill="#000000"> &#160;Providers</text>
<polygon fill="#fb8072" stroke="transparent" points="616.5,-10 616.5,-30 636.5,-30 636.5,-10 616.5,-10"/>
<text text-anchor="start" x="640.2258" y="-15.4" font-family="sans-serif" font-size="14.00" fill="#000000"> &#160;Exports</text>
<g id="clust1" class="cluster">
<title>cluster_RootModule</title>
<polygon fill="none" stroke="#000000" stroke-dasharray="1,5" points="8,-70 8,-268 909,-268 909,-70 8,-70"/>
</g>
<g id="clust2" class="cluster">
<title>cluster_RootModule_declarations</title>
<polygon fill="none" stroke="#000000" points="392,-78 392,-130 901,-130 901,-78 392,-78"/>
</g>
<g id="clust6" class="cluster">
<title>cluster_RootModule_imports</title>
<polygon fill="none" stroke="#000000" points="16,-78 16,-130 384,-130 384,-78 16,-78"/>
</g>
<g id="clust8" class="cluster">
<title>cluster_RootModule_bootstrap</title>
<polygon fill="none" stroke="#000000" points="337,-208 337,-260 465,-260 465,-208 337,-208"/>
</g>
<!-- RepositorySearchInputComponent -->
<g id="node1" class="node">
<title>RepositorySearchInputComponent</title>
<polygon fill="#ffffb3" stroke="#000000" points="893.4086,-122 682.5914,-122 682.5914,-86 893.4086,-86 893.4086,-122"/>
<text text-anchor="middle" x="788" y="-99.8" font-family="Times,serif" font-size="14.00" fill="#000000">RepositorySearchInputComponent</text>
</g>
<!-- RootModule -->
<g id="node4" class="node">
<title>RootModule</title>
<polygon fill="#8dd3c7" stroke="#000000" points="444.2773,-187 441.2773,-191 420.2773,-191 417.2773,-187 357.7227,-187 357.7227,-151 444.2773,-151 444.2773,-187"/>
<text text-anchor="middle" x="401" y="-164.8" font-family="Times,serif" font-size="14.00" fill="#000000">RootModule</text>
</g>
<!-- RepositorySearchInputComponent&#45;&gt;RootModule -->
<g id="edge1" class="edge">
<title>RepositorySearchInputComponent&#45;&gt;RootModule</title>
<path fill="none" stroke="#000000" d="M788,-122.2843C788,-143.3211 788,-175 788,-175 788,-175 454.6415,-175 454.6415,-175"/>
<polygon fill="#000000" stroke="#000000" points="454.6416,-171.5001 444.6415,-175 454.6415,-178.5001 454.6416,-171.5001"/>
</g>
<!-- RootComponent -->
<g id="node2" class="node">
<title>RootComponent</title>
<polygon fill="#ffffb3" stroke="#000000" points="665.0605,-122 556.9395,-122 556.9395,-86 665.0605,-86 665.0605,-122"/>
<text text-anchor="middle" x="611" y="-99.8" font-family="Times,serif" font-size="14.00" fill="#000000">RootComponent</text>
</g>
<!-- RootComponent&#45;&gt;RootModule -->
<g id="edge2" class="edge">
<title>RootComponent&#45;&gt;RootModule</title>
<path fill="none" stroke="#000000" d="M611,-122.0225C611,-139.3734 611,-163 611,-163 611,-163 454.5121,-163 454.5121,-163"/>
<polygon fill="#000000" stroke="#000000" points="454.5122,-159.5001 444.5121,-163 454.5121,-166.5001 454.5122,-159.5001"/>
</g>
<!-- TopReposComponent -->
<g id="node3" class="node">
<title>TopReposComponent</title>
<polygon fill="#ffffb3" stroke="#000000" points="538.3809,-122 399.6191,-122 399.6191,-86 538.3809,-86 538.3809,-122"/>
<text text-anchor="middle" x="469" y="-99.8" font-family="Times,serif" font-size="14.00" fill="#000000">TopReposComponent</text>
</g>
<!-- TopReposComponent&#45;&gt;RootModule -->
<g id="edge3" class="edge">
<title>TopReposComponent&#45;&gt;RootModule</title>
<path fill="none" stroke="#000000" d="M421.9741,-122.1061C421.9741,-122.1061 421.9741,-140.991 421.9741,-140.991"/>
<polygon fill="#000000" stroke="#000000" points="418.4741,-140.9909 421.9741,-150.991 425.4741,-140.991 418.4741,-140.9909"/>
</g>
<!-- RootComponent  -->
<g id="node8" class="node">
<title>RootComponent </title>
<polygon fill="#80b1d3" stroke="#000000" points="457.0596,-252 344.9404,-252 344.9404,-216 457.0596,-216 457.0596,-252"/>
<text text-anchor="middle" x="401" y="-229.8" font-family="Times,serif" font-size="14.00" fill="#000000">RootComponent </text>
</g>
<!-- RootModule&#45;&gt;RootComponent  -->
<g id="edge7" class="edge">
<title>RootModule&#45;&gt;RootComponent </title>
<path fill="none" stroke="#000000" stroke-dasharray="1,5" d="M401,-187.1061C401,-187.1061 401,-205.991 401,-205.991"/>
<polygon fill="#000000" stroke="#000000" points="397.5001,-205.9909 401,-215.991 404.5001,-205.991 397.5001,-205.9909"/>
</g>
<!-- CoreModule -->
<g id="node5" class="node">
<title>CoreModule</title>
<polygon fill="#8dd3c7" stroke="#000000" points="376.2619,-122 373.2619,-126 352.2619,-126 349.2619,-122 289.7381,-122 289.7381,-86 376.2619,-86 376.2619,-122"/>
<text text-anchor="middle" x="333" y="-99.8" font-family="Times,serif" font-size="14.00" fill="#000000">CoreModule</text>
</g>
<!-- CoreModule&#45;&gt;RootModule -->
<g id="edge4" class="edge">
<title>CoreModule&#45;&gt;RootModule</title>
<path fill="none" stroke="#000000" d="M366.9962,-122.1061C366.9962,-122.1061 366.9962,-140.991 366.9962,-140.991"/>
<polygon fill="#000000" stroke="#000000" points="363.4962,-140.9909 366.9962,-150.991 370.4962,-140.991 363.4962,-140.9909"/>
</g>
<!-- RootRoutingModule -->
<g id="node6" class="node">
<title>RootRoutingModule</title>
<polygon fill="#8dd3c7" stroke="#000000" points="271.8948,-122 268.8948,-126 247.8948,-126 244.8948,-122 140.1052,-122 140.1052,-86 271.8948,-86 271.8948,-122"/>
<text text-anchor="middle" x="206" y="-99.8" font-family="Times,serif" font-size="14.00" fill="#000000">RootRoutingModule</text>
</g>
<!-- RootRoutingModule&#45;&gt;RootModule -->
<g id="edge5" class="edge">
<title>RootRoutingModule&#45;&gt;RootModule</title>
<path fill="none" stroke="#000000" d="M206,-122.0225C206,-139.3734 206,-163 206,-163 206,-163 347.2382,-163 347.2382,-163"/>
<polygon fill="#000000" stroke="#000000" points="347.2382,-166.5001 357.2382,-163 347.2382,-159.5001 347.2382,-166.5001"/>
</g>
<!-- SharedModule -->
<g id="node7" class="node">
<title>SharedModule</title>
<polygon fill="#8dd3c7" stroke="#000000" points="122.4231,-122 119.4231,-126 98.4231,-126 95.4231,-122 23.5769,-122 23.5769,-86 122.4231,-86 122.4231,-122"/>
<text text-anchor="middle" x="73" y="-99.8" font-family="Times,serif" font-size="14.00" fill="#000000">SharedModule</text>
</g>
<!-- SharedModule&#45;&gt;RootModule -->
<g id="edge6" class="edge">
<title>SharedModule&#45;&gt;RootModule</title>
<path fill="none" stroke="#000000" d="M73,-122.2843C73,-143.3211 73,-175 73,-175 73,-175 347.4441,-175 347.4441,-175"/>
<polygon fill="#000000" stroke="#000000" points="347.4442,-178.5001 357.4441,-175 347.4441,-171.5001 347.4442,-178.5001"/>
</g>
</g>
</svg>
