<?xml version="1.0" encoding="UTF-8" standalone="no"?>
<!DOCTYPE svg PUBLIC "-//W3C//DTD SVG 1.1//EN"
 "http://www.w3.org/Graphics/SVG/1.1/DTD/svg11.dtd">
<!-- Generated by graphviz version 2.40.1 (20161225.0304)
 -->
<!-- Title: dependencies Pages: 1 -->
<svg width="3926pt" height="358pt"
 viewBox="0.00 0.00 3926.00 358.00" xmlns="http://www.w3.org/2000/svg" xmlns:xlink="http://www.w3.org/1999/xlink">
<g id="graph0" class="graph" transform="scale(1 1) rotate(0) translate(4 354)">
<title>dependencies</title>
<polygon fill="#ffffff" stroke="transparent" points="-4,4 -4,-354 3922,-354 3922,4 -4,4"/>
<text text-anchor="start" x="1938.0091" y="-42.4" font-family="sans-serif" font-weight="bold" font-size="14.00" fill="#000000">Legend</text>
<polygon fill="#ffffb3" stroke="transparent" points="1725,-10 1725,-30 1745,-30 1745,-10 1725,-10"/>
<text text-anchor="start" x="1748.629" y="-15.4" font-family="sans-serif" font-size="14.00" fill="#000000"> &#160;Declarations</text>
<polygon fill="#8dd3c7" stroke="transparent" points="1838,-10 1838,-30 1858,-30 1858,-10 1838,-10"/>
<text text-anchor="start" x="1861.7251" y="-15.4" font-family="sans-serif" font-size="14.00" fill="#000000"> &#160;Module</text>
<polygon fill="#80b1d3" stroke="transparent" points="1924,-10 1924,-30 1944,-30 1944,-10 1924,-10"/>
<text text-anchor="start" x="1947.7812" y="-15.4" font-family="sans-serif" font-size="14.00" fill="#000000"> &#160;Bootstrap</text>
<polygon fill="#fdb462" stroke="transparent" points="2021,-10 2021,-30 2041,-30 2041,-10 2021,-10"/>
<text text-anchor="start" x="2044.6732" y="-15.4" font-family="sans-serif" font-size="14.00" fill="#000000"> &#160;Providers</text>
<polygon fill="#fb8072" stroke="transparent" points="2117,-10 2117,-30 2137,-30 2137,-10 2117,-10"/>
<text text-anchor="start" x="2140.7258" y="-15.4" font-family="sans-serif" font-size="14.00" fill="#000000"> &#160;Exports</text>
<g id="clust1" class="cluster">
<title>cluster_CoreModule</title>
<polygon fill="none" stroke="#000000" stroke-dasharray="1,5" points="8,-70 8,-198 202,-198 202,-70 8,-70"/>
</g>
<g id="clust6" class="cluster">
<title>cluster_CoreModule_providers</title>
<polygon fill="none" stroke="#000000" points="16,-78 16,-130 194,-130 194,-78 16,-78"/>
</g>
<g id="clust7" class="cluster">
<title>cluster_RepoModule</title>
<polygon fill="none" stroke="#000000" stroke-dasharray="1,5" points="900,-138 900,-266 1658,-266 1658,-138 900,-138"/>
</g>
<g id="clust8" class="cluster">
<title>cluster_RepoModule_declarations</title>
<polygon fill="none" stroke="#000000" points="908,-146 908,-198 1376,-198 1376,-146 908,-146"/>
</g>
<g id="clust12" class="cluster">
<title>cluster_RepoModule_imports</title>
<polygon fill="none" stroke="#000000" points="1384,-146 1384,-198 1650,-198 1650,-146 1384,-146"/>
</g>
<g id="clust22" class="cluster">
<title>cluster_RootModule</title>
<polygon fill="none" stroke="#000000" stroke-dasharray="1,5" points="210,-138 210,-342 892,-342 892,-138 210,-138"/>
</g>
<g id="clust23" class="cluster">
<title>cluster_RootModule_declarations</title>
<polygon fill="none" stroke="#000000" points="374,-146 374,-198 884,-198 884,-146 374,-146"/>
</g>
<g id="clust27" class="cluster">
<title>cluster_RootModule_imports</title>
<polygon fill="none" stroke="#000000" points="218,-146 218,-198 366,-198 366,-146 218,-146"/>
</g>
<g id="clust29" class="cluster">
<title>cluster_RootModule_bootstrap</title>
<polygon fill="none" stroke="#000000" points="519,-282 519,-334 647,-334 647,-282 519,-282"/>
</g>
<g id="clust37" class="cluster">
<title>cluster_SharedModule</title>
<polygon fill="none" stroke="#000000" stroke-dasharray="1,5" points="1666,-206 1666,-274 2327,-274 2327,-206 1666,-206"/>
</g>
<g id="clust38" class="cluster">
<title>cluster_SharedModule_declarations</title>
<polygon fill="none" stroke="#000000" points="2004,-214 2004,-266 2319,-266 2319,-214 2004,-214"/>
</g>
<g id="clust42" class="cluster">
<title>cluster_SharedModule_exports</title>
<polygon fill="none" stroke="#000000" points="1674,-214 1674,-266 1996,-266 1996,-214 1674,-214"/>
</g>
<g id="clust45" class="cluster">
<title>cluster_UserModule</title>
<polygon fill="none" stroke="#000000" stroke-dasharray="1,5" points="2335,-138 2335,-266 3910,-266 3910,-138 2335,-138"/>
</g>
<g id="clust46" class="cluster">
<title>cluster_UserModule_declarations</title>
<polygon fill="none" stroke="#000000" points="2499,-146 2499,-198 3902,-198 3902,-146 2499,-146"/>
</g>
<g id="clust55" class="cluster">
<title>cluster_UserModule_imports</title>
<polygon fill="none" stroke="#000000" points="2343,-146 2343,-198 2491,-198 2491,-146 2343,-146"/>
</g>
<!-- GithubApiService -->
<g id="node1" class="node">
<title>GithubApiService</title>
<ellipse fill="#fdb462" stroke="#000000" cx="105" cy="-104" rx="81.0994" ry="18"/>
<text text-anchor="middle" x="105" y="-99.8" font-family="Times,serif" font-size="14.00" fill="#000000">GithubApiService</text>
</g>
<!-- CoreModule -->
<g id="node2" class="node">
<title>CoreModule</title>
<polygon fill="#8dd3c7" stroke="#000000" points="171.2619,-190 168.2619,-194 147.2619,-194 144.2619,-190 84.7381,-190 84.7381,-154 171.2619,-154 171.2619,-190"/>
<text text-anchor="middle" x="128" y="-167.8" font-family="Times,serif" font-size="14.00" fill="#000000">CoreModule</text>
</g>
<!-- GithubApiService&#45;&gt;CoreModule -->
<g id="edge1" class="edge">
<title>GithubApiService&#45;&gt;CoreModule</title>
<path fill="none" stroke="#000000" d="M128,-121.5117C128,-121.5117 128,-143.8359 128,-143.8359"/>
<polygon fill="#000000" stroke="#000000" points="124.5001,-143.8358 128,-153.8359 131.5001,-143.8359 124.5001,-143.8358"/>
</g>
<!-- RootModule -->
<g id="node12" class="node">
<title>RootModule</title>
<polygon fill="#8dd3c7" stroke="#000000" points="626.2773,-258 623.2773,-262 602.2773,-262 599.2773,-258 539.7227,-258 539.7227,-222 626.2773,-222 626.2773,-258"/>
<text text-anchor="middle" x="583" y="-235.8" font-family="Times,serif" font-size="14.00" fill="#000000">RootModule</text>
</g>
<!-- CoreModule&#45;&gt;RootModule -->
<g id="edge10" class="edge">
<title>CoreModule&#45;&gt;RootModule</title>
<path fill="none" stroke="#000000" d="M128,-190.2921C128,-212.2057 128,-246 128,-246 128,-246 529.3727,-246 529.3727,-246"/>
<polygon fill="#000000" stroke="#000000" points="529.3727,-249.5001 539.3727,-246 529.3727,-242.5001 529.3727,-249.5001"/>
</g>
<!-- RepoComponent -->
<g id="node3" class="node">
<title>RepoComponent</title>
<polygon fill="#ffffb3" stroke="#000000" points="1026.3837,-190 915.6163,-190 915.6163,-154 1026.3837,-154 1026.3837,-190"/>
<text text-anchor="middle" x="971" y="-167.8" font-family="Times,serif" font-size="14.00" fill="#000000">RepoComponent</text>
</g>
<!-- RepoModule -->
<g id="node6" class="node">
<title>RepoModule</title>
<polygon fill="#8dd3c7" stroke="#000000" points="1338.6011,-258 1335.6011,-262 1314.6011,-262 1311.6011,-258 1249.3989,-258 1249.3989,-222 1338.6011,-222 1338.6011,-258"/>
<text text-anchor="middle" x="1294" y="-235.8" font-family="Times,serif" font-size="14.00" fill="#000000">RepoModule</text>
</g>
<!-- RepoComponent&#45;&gt;RepoModule -->
<g id="edge2" class="edge">
<title>RepoComponent&#45;&gt;RepoModule</title>
<path fill="none" stroke="#000000" d="M971,-190.2479C971,-213.0179 971,-249 971,-249 971,-249 1239.4274,-249 1239.4274,-249"/>
<polygon fill="#000000" stroke="#000000" points="1239.4274,-252.5001 1249.4274,-249 1239.4273,-245.5001 1239.4274,-252.5001"/>
</g>
<!-- RepoEventsComponent -->
<g id="node4" class="node">
<title>RepoEventsComponent</title>
<polygon fill="#ffffb3" stroke="#000000" points="1368.486,-190 1219.514,-190 1219.514,-154 1368.486,-154 1368.486,-190"/>
<text text-anchor="middle" x="1294" y="-167.8" font-family="Times,serif" font-size="14.00" fill="#000000">RepoEventsComponent</text>
</g>
<!-- RepoEventsComponent&#45;&gt;RepoModule -->
<g id="edge3" class="edge">
<title>RepoEventsComponent&#45;&gt;RepoModule</title>
<path fill="none" stroke="#000000" d="M1294,-190.2228C1294,-190.2228 1294,-211.7269 1294,-211.7269"/>
<polygon fill="#000000" stroke="#000000" points="1290.5001,-211.7269 1294,-221.7269 1297.5001,-211.727 1290.5001,-211.7269"/>
</g>
<!-- RepoReadmeComponent -->
<g id="node5" class="node">
<title>RepoReadmeComponent</title>
<polygon fill="#ffffb3" stroke="#000000" points="1201.2548,-190 1044.7452,-190 1044.7452,-154 1201.2548,-154 1201.2548,-190"/>
<text text-anchor="middle" x="1123" y="-167.8" font-family="Times,serif" font-size="14.00" fill="#000000">RepoReadmeComponent</text>
</g>
<!-- RepoReadmeComponent&#45;&gt;RepoModule -->
<g id="edge4" class="edge">
<title>RepoReadmeComponent&#45;&gt;RepoModule</title>
<path fill="none" stroke="#000000" d="M1123,-190.2228C1123,-210.3652 1123,-240 1123,-240 1123,-240 1239.0718,-240 1239.0718,-240"/>
<polygon fill="#000000" stroke="#000000" points="1239.0718,-243.5001 1249.0718,-240 1239.0717,-236.5001 1239.0718,-243.5001"/>
</g>
<!-- RepoRoutingModule -->
<g id="node7" class="node">
<title>RepoRoutingModule</title>
<polygon fill="#8dd3c7" stroke="#000000" points="1526.219,-190 1523.219,-194 1502.219,-194 1499.219,-190 1391.781,-190 1391.781,-154 1526.219,-154 1526.219,-190"/>
<text text-anchor="middle" x="1459" y="-167.8" font-family="Times,serif" font-size="14.00" fill="#000000">RepoRoutingModule</text>
</g>
<!-- RepoRoutingModule&#45;&gt;RepoModule -->
<g id="edge5" class="edge">
<title>RepoRoutingModule&#45;&gt;RepoModule</title>
<path fill="none" stroke="#000000" d="M1459,-190.0225C1459,-207.3734 1459,-231 1459,-231 1459,-231 1348.6514,-231 1348.6514,-231"/>
<polygon fill="#000000" stroke="#000000" points="1348.6514,-227.5001 1338.6514,-231 1348.6513,-234.5001 1348.6514,-227.5001"/>
</g>
<!-- SharedModule -->
<g id="node8" class="node">
<title>SharedModule</title>
<polygon fill="#8dd3c7" stroke="#000000" points="1642.4231,-190 1639.4231,-194 1618.4231,-194 1615.4231,-190 1543.5769,-190 1543.5769,-154 1642.4231,-154 1642.4231,-190"/>
<text text-anchor="middle" x="1593" y="-167.8" font-family="Times,serif" font-size="14.00" fill="#000000">SharedModule</text>
</g>
<!-- SharedModule&#45;&gt;RepoModule -->
<g id="edge6" class="edge">
<title>SharedModule&#45;&gt;RepoModule</title>
<path fill="none" stroke="#000000" d="M1593,-190.2228C1593,-210.3652 1593,-240 1593,-240 1593,-240 1348.7633,-240 1348.7633,-240"/>
<polygon fill="#000000" stroke="#000000" points="1348.7634,-236.5001 1338.7633,-240 1348.7633,-243.5001 1348.7634,-236.5001"/>
</g>
<!-- SharedModule&#45;&gt;RootModule -->
<g id="edge12" class="edge">
<title>SharedModule&#45;&gt;RootModule</title>
<path fill="none" stroke="#000000" d="M1568.3945,-190.1944C1568.3945,-198.2782 1568.3945,-206 1568.3945,-206 1568.3945,-206 621.1122,-206 621.1122,-206 621.1122,-206 621.1122,-211.8056 621.1122,-211.8056"/>
<polygon fill="#000000" stroke="#000000" points="617.6123,-211.8055 621.1122,-221.8056 624.6123,-211.8056 617.6123,-211.8055"/>
</g>
<!-- LargeNumberShortenPipe  -->
<g id="node17" class="node">
<title>LargeNumberShortenPipe </title>
<polygon fill="#fb8072" stroke="#000000" points="1988.4516,-258 1821.5484,-258 1821.5484,-222 1988.4516,-222 1988.4516,-258"/>
<text text-anchor="middle" x="1905" y="-235.8" font-family="Times,serif" font-size="14.00" fill="#000000">LargeNumberShortenPipe </text>
</g>
<!-- SharedModule&#45;&gt;LargeNumberShortenPipe  -->
<g id="edge16" class="edge">
<title>SharedModule&#45;&gt;LargeNumberShortenPipe </title>
<path fill="none" stroke="#000000" stroke-dasharray="5,2" d="M1642.4373,-183C1730.4129,-183 1905,-183 1905,-183 1905,-183 1905,-211.9648 1905,-211.9648"/>
<polygon fill="#000000" stroke="#000000" points="1901.5001,-211.9648 1905,-221.9648 1908.5001,-211.9649 1901.5001,-211.9648"/>
</g>
<!-- MarkedDownPipe  -->
<g id="node18" class="node">
<title>MarkedDownPipe </title>
<polygon fill="#fb8072" stroke="#000000" points="1804.1355,-258 1681.8645,-258 1681.8645,-222 1804.1355,-222 1804.1355,-258"/>
<text text-anchor="middle" x="1743" y="-235.8" font-family="Times,serif" font-size="14.00" fill="#000000">MarkedDownPipe </text>
</g>
<!-- SharedModule&#45;&gt;MarkedDownPipe  -->
<g id="edge17" class="edge">
<title>SharedModule&#45;&gt;MarkedDownPipe </title>
<path fill="none" stroke="#000000" stroke-dasharray="5,2" d="M1617.6056,-190.2479C1617.6056,-213.0179 1617.6056,-249 1617.6056,-249 1617.6056,-249 1671.7721,-249 1671.7721,-249"/>
<polygon fill="#000000" stroke="#000000" points="1671.7722,-252.5001 1681.7721,-249 1671.7721,-245.5001 1671.7722,-252.5001"/>
</g>
<!-- UserModule -->
<g id="node27" class="node">
<title>UserModule</title>
<polygon fill="#8dd3c7" stroke="#000000" points="3087.9762,-258 3084.9762,-262 3063.9762,-262 3060.9762,-258 3002.0238,-258 3002.0238,-222 3087.9762,-222 3087.9762,-258"/>
<text text-anchor="middle" x="3045" y="-235.8" font-family="Times,serif" font-size="14.00" fill="#000000">UserModule</text>
</g>
<!-- SharedModule&#45;&gt;UserModule -->
<g id="edge26" class="edge">
<title>SharedModule&#45;&gt;UserModule</title>
<path fill="none" stroke="#000000" d="M1642.3116,-162C1807.565,-162 2331.4643,-162 2331.4643,-162 2331.4643,-162 2331.4643,-251 2331.4643,-251 2331.4643,-251 2991.972,-251 2991.972,-251"/>
<polygon fill="#000000" stroke="#000000" points="2991.9721,-254.5001 3001.972,-251 2991.972,-247.5001 2991.9721,-254.5001"/>
</g>
<!-- RepositorySearchInputComponent -->
<g id="node9" class="node">
<title>RepositorySearchInputComponent</title>
<polygon fill="#ffffb3" stroke="#000000" points="592.4086,-190 381.5914,-190 381.5914,-154 592.4086,-154 592.4086,-190"/>
<text text-anchor="middle" x="487" y="-167.8" font-family="Times,serif" font-size="14.00" fill="#000000">RepositorySearchInputComponent</text>
</g>
<!-- RepositorySearchInputComponent&#45;&gt;RootModule -->
<g id="edge7" class="edge">
<title>RepositorySearchInputComponent&#45;&gt;RootModule</title>
<path fill="none" stroke="#000000" d="M565.9078,-190.2228C565.9078,-190.2228 565.9078,-211.7269 565.9078,-211.7269"/>
<polygon fill="#000000" stroke="#000000" points="562.4079,-211.7269 565.9078,-221.7269 569.4079,-211.727 562.4079,-211.7269"/>
</g>
<!-- RootComponent -->
<g id="node10" class="node">
<title>RootComponent</title>
<polygon fill="#ffffb3" stroke="#000000" points="876.0605,-190 767.9395,-190 767.9395,-154 876.0605,-154 876.0605,-190"/>
<text text-anchor="middle" x="822" y="-167.8" font-family="Times,serif" font-size="14.00" fill="#000000">RootComponent</text>
</g>
<!-- RootComponent&#45;&gt;RootModule -->
<g id="edge8" class="edge">
<title>RootComponent&#45;&gt;RootModule</title>
<path fill="none" stroke="#000000" d="M822,-190.0225C822,-207.3734 822,-231 822,-231 822,-231 636.2811,-231 636.2811,-231"/>
<polygon fill="#000000" stroke="#000000" points="636.2811,-227.5001 626.2811,-231 636.2811,-234.5001 636.2811,-227.5001"/>
</g>
<!-- TopReposComponent -->
<g id="node11" class="node">
<title>TopReposComponent</title>
<polygon fill="#ffffb3" stroke="#000000" points="749.3809,-190 610.6191,-190 610.6191,-154 749.3809,-154 749.3809,-190"/>
<text text-anchor="middle" x="680" y="-167.8" font-family="Times,serif" font-size="14.00" fill="#000000">TopReposComponent</text>
</g>
<!-- TopReposComponent&#45;&gt;RootModule -->
<g id="edge9" class="edge">
<title>TopReposComponent&#45;&gt;RootModule</title>
<path fill="none" stroke="#000000" d="M615.8359,-190.2228C615.8359,-190.2228 615.8359,-211.7269 615.8359,-211.7269"/>
<polygon fill="#000000" stroke="#000000" points="612.336,-211.7269 615.8359,-221.7269 619.336,-211.727 612.336,-211.7269"/>
</g>
<!-- RootComponent  -->
<g id="node14" class="node">
<title>RootComponent </title>
<polygon fill="#80b1d3" stroke="#000000" points="639.0596,-326 526.9404,-326 526.9404,-290 639.0596,-290 639.0596,-326"/>
<text text-anchor="middle" x="583" y="-303.8" font-family="Times,serif" font-size="14.00" fill="#000000">RootComponent </text>
</g>
<!-- RootModule&#45;&gt;RootComponent  -->
<g id="edge13" class="edge">
<title>RootModule&#45;&gt;RootComponent </title>
<path fill="none" stroke="#000000" stroke-dasharray="1,5" d="M583,-258.2228C583,-258.2228 583,-279.7269 583,-279.7269"/>
<polygon fill="#000000" stroke="#000000" points="579.5001,-279.7269 583,-289.7269 586.5001,-279.727 579.5001,-279.7269"/>
</g>
<!-- RootRoutingModule -->
<g id="node13" class="node">
<title>RootRoutingModule</title>
<polygon fill="#8dd3c7" stroke="#000000" points="357.8948,-190 354.8948,-194 333.8948,-194 330.8948,-190 226.1052,-190 226.1052,-154 357.8948,-154 357.8948,-190"/>
<text text-anchor="middle" x="292" y="-167.8" font-family="Times,serif" font-size="14.00" fill="#000000">RootRoutingModule</text>
</g>
<!-- RootRoutingModule&#45;&gt;RootModule -->
<g id="edge11" class="edge">
<title>RootRoutingModule&#45;&gt;RootModule</title>
<path fill="none" stroke="#000000" d="M292,-190.2667C292,-208.5552 292,-234 292,-234 292,-234 529.4344,-234 529.4344,-234"/>
<polygon fill="#000000" stroke="#000000" points="529.4344,-237.5001 539.4344,-234 529.4343,-230.5001 529.4344,-237.5001"/>
</g>
<!-- LargeNumberShortenPipe -->
<g id="node15" class="node">
<title>LargeNumberShortenPipe</title>
<polygon fill="#ffffb3" stroke="#000000" points="2311.451,-258 2148.549,-258 2148.549,-222 2311.451,-222 2311.451,-258"/>
<text text-anchor="middle" x="2230" y="-235.8" font-family="Times,serif" font-size="14.00" fill="#000000">LargeNumberShortenPipe</text>
</g>
<!-- LargeNumberShortenPipe&#45;&gt;SharedModule -->
<g id="edge14" class="edge">
<title>LargeNumberShortenPipe&#45;&gt;SharedModule</title>
<path fill="none" stroke="#000000" d="M2230,-221.7157C2230,-200.6789 2230,-169 2230,-169 2230,-169 1652.4543,-169 1652.4543,-169"/>
<polygon fill="#000000" stroke="#000000" points="1652.4543,-165.5001 1642.4543,-169 1652.4542,-172.5001 1652.4543,-165.5001"/>
</g>
<!-- MarkedDownPipe -->
<g id="node16" class="node">
<title>MarkedDownPipe</title>
<polygon fill="#ffffb3" stroke="#000000" points="2130.136,-258 2011.864,-258 2011.864,-222 2130.136,-222 2130.136,-258"/>
<text text-anchor="middle" x="2071" y="-235.8" font-family="Times,serif" font-size="14.00" fill="#000000">MarkedDownPipe</text>
</g>
<!-- MarkedDownPipe&#45;&gt;SharedModule -->
<g id="edge15" class="edge">
<title>MarkedDownPipe&#45;&gt;SharedModule</title>
<path fill="none" stroke="#000000" d="M2071,-221.8314C2071,-202.9102 2071,-176 2071,-176 2071,-176 1652.354,-176 1652.354,-176"/>
<polygon fill="#000000" stroke="#000000" points="1652.3541,-172.5001 1642.354,-176 1652.354,-179.5001 1652.3541,-172.5001"/>
</g>
<!-- EventCardViewComponent -->
<g id="node19" class="node">
<title>EventCardViewComponent</title>
<polygon fill="#ffffb3" stroke="#000000" points="2861.5211,-190 2690.4789,-190 2690.4789,-154 2861.5211,-154 2861.5211,-190"/>
<text text-anchor="middle" x="2776" y="-167.8" font-family="Times,serif" font-size="14.00" fill="#000000">EventCardViewComponent</text>
</g>
<!-- EventCardViewComponent&#45;&gt;UserModule -->
<g id="edge18" class="edge">
<title>EventCardViewComponent&#45;&gt;UserModule</title>
<path fill="none" stroke="#000000" d="M2776,-190.0336C2776,-207.0597 2776,-230 2776,-230 2776,-230 2991.7805,-230 2991.7805,-230"/>
<polygon fill="#000000" stroke="#000000" points="2991.7805,-233.5001 3001.7805,-230 2991.7805,-226.5001 2991.7805,-233.5001"/>
</g>
<!-- UserCardViewComponent -->
<g id="node20" class="node">
<title>UserCardViewComponent</title>
<polygon fill="#ffffb3" stroke="#000000" points="2672.7893,-190 2507.2107,-190 2507.2107,-154 2672.7893,-154 2672.7893,-190"/>
<text text-anchor="middle" x="2590" y="-167.8" font-family="Times,serif" font-size="14.00" fill="#000000">UserCardViewComponent</text>
</g>
<!-- UserCardViewComponent&#45;&gt;UserModule -->
<g id="edge19" class="edge">
<title>UserCardViewComponent&#45;&gt;UserModule</title>
<path fill="none" stroke="#000000" d="M2590,-190.1061C2590,-209.3391 2590,-237 2590,-237 2590,-237 2991.7845,-237 2991.7845,-237"/>
<polygon fill="#000000" stroke="#000000" points="2991.7845,-240.5001 3001.7845,-237 2991.7845,-233.5001 2991.7845,-240.5001"/>
</g>
<!-- UserComponent -->
<g id="node21" class="node">
<title>UserComponent</title>
<polygon fill="#ffffb3" stroke="#000000" points="3893.7591,-190 3786.2409,-190 3786.2409,-154 3893.7591,-154 3893.7591,-190"/>
<text text-anchor="middle" x="3840" y="-167.8" font-family="Times,serif" font-size="14.00" fill="#000000">UserComponent</text>
</g>
<!-- UserComponent&#45;&gt;UserModule -->
<g id="edge20" class="edge">
<title>UserComponent&#45;&gt;UserModule</title>
<path fill="none" stroke="#000000" d="M3840,-190.3228C3840,-213.6602 3840,-251 3840,-251 3840,-251 3098.0245,-251 3098.0245,-251"/>
<polygon fill="#000000" stroke="#000000" points="3098.0246,-247.5001 3088.0245,-251 3098.0245,-254.5001 3098.0246,-247.5001"/>
</g>
<!-- UserEventsComponent -->
<g id="node22" class="node">
<title>UserEventsComponent</title>
<polygon fill="#ffffb3" stroke="#000000" points="3767.8613,-190 3622.1387,-190 3622.1387,-154 3767.8613,-154 3767.8613,-190"/>
<text text-anchor="middle" x="3695" y="-167.8" font-family="Times,serif" font-size="14.00" fill="#000000">UserEventsComponent</text>
</g>
<!-- UserEventsComponent&#45;&gt;UserModule -->
<g id="edge21" class="edge">
<title>UserEventsComponent&#45;&gt;UserModule</title>
<path fill="none" stroke="#000000" d="M3695,-190.1686C3695,-211.498 3695,-244 3695,-244 3695,-244 3098.1517,-244 3098.1517,-244"/>
<polygon fill="#000000" stroke="#000000" points="3098.1517,-240.5001 3088.1517,-244 3098.1517,-247.5001 3098.1517,-240.5001"/>
</g>
<!-- UserFollowersComponent -->
<g id="node23" class="node">
<title>UserFollowersComponent</title>
<polygon fill="#ffffb3" stroke="#000000" points="3603.7492,-190 3440.2508,-190 3440.2508,-154 3603.7492,-154 3603.7492,-190"/>
<text text-anchor="middle" x="3522" y="-167.8" font-family="Times,serif" font-size="14.00" fill="#000000">UserFollowersComponent</text>
</g>
<!-- UserFollowersComponent&#45;&gt;UserModule -->
<g id="edge22" class="edge">
<title>UserFollowersComponent&#45;&gt;UserModule</title>
<path fill="none" stroke="#000000" d="M3522,-190.1061C3522,-209.3391 3522,-237 3522,-237 3522,-237 3098.1719,-237 3098.1719,-237"/>
<polygon fill="#000000" stroke="#000000" points="3098.1719,-233.5001 3088.1719,-237 3098.1718,-240.5001 3098.1719,-233.5001"/>
</g>
<!-- UserFollowingComponent -->
<g id="node24" class="node">
<title>UserFollowingComponent</title>
<polygon fill="#ffffb3" stroke="#000000" points="3421.8201,-190 3256.1799,-190 3256.1799,-154 3421.8201,-154 3421.8201,-190"/>
<text text-anchor="middle" x="3339" y="-167.8" font-family="Times,serif" font-size="14.00" fill="#000000">UserFollowingComponent</text>
</g>
<!-- UserFollowingComponent&#45;&gt;UserModule -->
<g id="edge23" class="edge">
<title>UserFollowingComponent&#45;&gt;UserModule</title>
<path fill="none" stroke="#000000" d="M3339,-190.0336C3339,-207.0597 3339,-230 3339,-230 3339,-230 3098.065,-230 3098.065,-230"/>
<polygon fill="#000000" stroke="#000000" points="3098.065,-226.5001 3088.065,-230 3098.0649,-233.5001 3098.065,-226.5001"/>
</g>
<!-- UserRecievedEventsComponent -->
<g id="node25" class="node">
<title>UserRecievedEventsComponent</title>
<polygon fill="#ffffb3" stroke="#000000" points="3237.9468,-190 3040.0532,-190 3040.0532,-154 3237.9468,-154 3237.9468,-190"/>
<text text-anchor="middle" x="3139" y="-167.8" font-family="Times,serif" font-size="14.00" fill="#000000">UserRecievedEventsComponent</text>
</g>
<!-- UserRecievedEventsComponent&#45;&gt;UserModule -->
<g id="edge24" class="edge">
<title>UserRecievedEventsComponent&#45;&gt;UserModule</title>
<path fill="none" stroke="#000000" d="M3064.0074,-190.2228C3064.0074,-190.2228 3064.0074,-211.7269 3064.0074,-211.7269"/>
<polygon fill="#000000" stroke="#000000" points="3060.5074,-211.7269 3064.0074,-221.7269 3067.5074,-211.727 3060.5074,-211.7269"/>
</g>
<!-- UserReposComponent -->
<g id="node26" class="node">
<title>UserReposComponent</title>
<polygon fill="#ffffb3" stroke="#000000" points="3022.2548,-190 2879.7452,-190 2879.7452,-154 3022.2548,-154 3022.2548,-190"/>
<text text-anchor="middle" x="2951" y="-167.8" font-family="Times,serif" font-size="14.00" fill="#000000">UserReposComponent</text>
</g>
<!-- UserReposComponent&#45;&gt;UserModule -->
<g id="edge25" class="edge">
<title>UserReposComponent&#45;&gt;UserModule</title>
<path fill="none" stroke="#000000" d="M3012.1946,-190.2228C3012.1946,-190.2228 3012.1946,-211.7269 3012.1946,-211.7269"/>
<polygon fill="#000000" stroke="#000000" points="3008.6947,-211.7269 3012.1946,-221.7269 3015.6947,-211.727 3008.6947,-211.7269"/>
</g>
<!-- UserRoutingModule -->
<g id="node28" class="node">
<title>UserRoutingModule</title>
<polygon fill="#8dd3c7" stroke="#000000" points="2482.594,-190 2479.594,-194 2458.594,-194 2455.594,-190 2351.406,-190 2351.406,-154 2482.594,-154 2482.594,-190"/>
<text text-anchor="middle" x="2417" y="-167.8" font-family="Times,serif" font-size="14.00" fill="#000000">UserRoutingModule</text>
</g>
<!-- UserRoutingModule&#45;&gt;UserModule -->
<g id="edge27" class="edge">
<title>UserRoutingModule&#45;&gt;UserModule</title>
<path fill="none" stroke="#000000" d="M2417,-190.1686C2417,-211.498 2417,-244 2417,-244 2417,-244 2991.835,-244 2991.835,-244"/>
<polygon fill="#000000" stroke="#000000" points="2991.8351,-247.5001 3001.835,-244 2991.835,-240.5001 2991.8351,-247.5001"/>
</g>
</g>
</svg>
